<?xml version="1.0" encoding="UTF-8"?>
<svg width="1.5cm" height="1.5cm" version="1.1" viewBox="0 0 56.693 56.693" xmlns="http://www.w3.org/2000/svg"><defs><clipPath id="clipPath26"><path d="m0 2305h2500v-2305h-2500z"/></clipPath></defs><g transform="matrix(.025291 0 0 -.025291 -3.2807 57.441)"><g transform="translate(1250.7,117.6)"><path d="m0 0 412.82 1270.5h-825.65l412.82-1270.5z" fill="#e93b2f"/></g><g transform="translate(1250.7,117.61)"><path d="m0 0-412.83 1270.5h-578.55z" fill="#f35f2e"/></g><g clip-path="url(#clipPath26)"><g transform="translate(259.36,1388.1)"><path d="m0 0-125.45-386.11c-11.443-35.213 1.09-73.789 31.042-95.554l1085.8-788.86-991.38 1270.5z" fill="#f79527"/><path d="m0 0h578.55l-248.63 765.23c-12.795 39.376-68.499 39.367-81.286 0z" fill="#e93b2f"/></g><g transform="translate(1250.7,117.61)"><path d="m0 0 412.82 1270.5h578.56z" fill="#f35f2e"/></g><g transform="translate(2242.1,1388.1)"><path d="m0 0 125.45-386.11c11.441-35.215-1.094-73.791-31.051-95.554l-1085.8-788.86 991.37 1270.5z" fill="#f79527"/><path d="m0 0h-578.56l248.64 765.23c12.795 39.376 68.499 39.367 81.286 0z" fill="#e93b2f"/></g></g></g></svg>
